<svg viewBox="0 0 1277.5567626953125 400" xmlns="http://www.w3.org/2000/svg"><g><g><g><g><g><line x1="58" y1="366" x2="53" y2="366" style="visibility: inherit;" fill="rgb(0, 0, 0)" stroke="rgb(204, 204, 204)" stroke-width="1px"></line><line x1="58" y1="325.3333333333333" x2="53" y2="325.3333333333333" style="visibility: inherit;" fill="rgb(0, 0, 0)" stroke="rgb(204, 204, 204)" stroke-width="1px"></line><line x1="58" y1="284.66666666666663" x2="53" y2="284.66666666666663" style="visibility: inherit;" fill="rgb(0, 0, 0)" stroke="rgb(204, 204, 204)" stroke-width="1px"></line><line x1="58" y1="244" x2="53" y2="244" style="visibility: inherit;" fill="rgb(0, 0, 0)" stroke="rgb(204, 204, 204)" stroke-width="1px"></line><line x1="58" y1="203.33333333333331" x2="53" y2="203.33333333333331" style="visibility: inherit;" fill="rgb(0, 0, 0)" stroke="rgb(204, 204, 204)" stroke-width="1px"></line><line x1="58" y1="162.66666666666666" x2="53" y2="162.66666666666666" style="visibility: inherit;" fill="rgb(0, 0, 0)" stroke="rgb(204, 204, 204)" stroke-width="1px"></line><line x1="58" y1="122" x2="53" y2="122" style="visibility: inherit;" fill="rgb(0, 0, 0)" stroke="rgb(204, 204, 204)" stroke-width="1px"></line><line x1="58" y1="81.33333333333337" x2="53" y2="81.33333333333337" style="visibility: inherit;" fill="rgb(0, 0, 0)" stroke="rgb(204, 204, 204)" stroke-width="1px"></line><line x1="58" y1="40.666666666666686" x2="53" y2="40.666666666666686" style="visibility: inherit;" fill="rgb(0, 0, 0)" stroke="rgb(204, 204, 204)" stroke-width="1px"></line><line x1="58" y1="0" x2="53" y2="0" style="visibility: inherit;" fill="rgb(0, 0, 0)" stroke="rgb(204, 204, 204)" stroke-width="1px"></line></g><g transform="translate(48, 0)"><text x="0" y="366" dx="0em" dy="0.3em" style="text-anchor: end; visibility: hidden; font-family: &quot;Helvetica Neue&quot;, sans-serif; font-size: 12px; font-weight: 200;" fill="rgb(50, 49, 63)" stroke="none" stroke-width="1px">-0.1</text><text x="0" y="325.3333333333333" dx="0em" dy="0.3em" style="text-anchor: end; visibility: inherit; font-family: &quot;Helvetica Neue&quot;, sans-serif; font-size: 12px; font-weight: 200;" fill="rgb(50, 49, 63)" stroke="none" stroke-width="1px">0</text><text x="0" y="284.66666666666663" dx="0em" dy="0.3em" style="text-anchor: end; visibility: inherit; font-family: &quot;Helvetica Neue&quot;, sans-serif; font-size: 12px; font-weight: 200;" fill="rgb(50, 49, 63)" stroke="none" stroke-width="1px">0.1</text><text x="0" y="244" dx="0em" dy="0.3em" style="text-anchor: end; visibility: inherit; font-family: &quot;Helvetica Neue&quot;, sans-serif; font-size: 12px; font-weight: 200;" fill="rgb(50, 49, 63)" stroke="none" stroke-width="1px">0.2</text><text x="0" y="203.33333333333331" dx="0em" dy="0.3em" style="text-anchor: end; visibility: inherit; font-family: &quot;Helvetica Neue&quot;, sans-serif; font-size: 12px; font-weight: 200;" fill="rgb(50, 49, 63)" stroke="none" stroke-width="1px">0.3</text><text x="0" y="162.66666666666666" dx="0em" dy="0.3em" style="text-anchor: end; visibility: inherit; font-family: &quot;Helvetica Neue&quot;, sans-serif; font-size: 12px; font-weight: 200;" fill="rgb(50, 49, 63)" stroke="none" stroke-width="1px">0.4</text><text x="0" y="122" dx="0em" dy="0.3em" style="text-anchor: end; visibility: inherit; font-family: &quot;Helvetica Neue&quot;, sans-serif; font-size: 12px; font-weight: 200;" fill="rgb(50, 49, 63)" stroke="none" stroke-width="1px">0.5</text><text x="0" y="81.33333333333337" dx="0em" dy="0.3em" style="text-anchor: end; visibility: inherit; font-family: &quot;Helvetica Neue&quot;, sans-serif; font-size: 12px; font-weight: 200;" fill="rgb(50, 49, 63)" stroke="none" stroke-width="1px">0.6</text><text x="0" y="40.666666666666686" dx="0em" dy="0.3em" style="text-anchor: end; visibility: inherit; font-family: &quot;Helvetica Neue&quot;, sans-serif; font-size: 12px; font-weight: 200;" fill="rgb(50, 49, 63)" stroke="none" stroke-width="1px">0.7</text><text x="0" y="0" dx="0em" dy="0.3em" style="text-anchor: end; visibility: hidden; font-family: &quot;Helvetica Neue&quot;, sans-serif; font-size: 12px; font-weight: 200;" fill="rgb(50, 49, 63)" stroke="none" stroke-width="1px">0.8</text></g><line x1="58" y1="0" x2="58" y2="366" fill="rgb(0, 0, 0)" stroke="rgb(204, 204, 204)" stroke-width="1px"></line></g></g><g transform="translate(58, 0)" clip-path="url(#clip_0)"><clipPath id="clip_0"><rect width="1219" height="365"></rect></clipPath><g><g><g><line x1="0" y1="0" x2="0" y2="366" fill="rgb(0, 0, 0)" stroke="rgb(60, 60, 60)" stroke-width="1px" opacity="0.25"></line><line x1="81.304" y1="0" x2="81.304" y2="366" fill="rgb(0, 0, 0)" stroke="rgb(60, 60, 60)" stroke-width="1px" opacity="0.25"></line><line x1="162.608" y1="0" x2="162.608" y2="366" fill="rgb(0, 0, 0)" stroke="rgb(60, 60, 60)" stroke-width="1px" opacity="0.25"></line><line x1="243.912" y1="0" x2="243.912" y2="366" fill="rgb(0, 0, 0)" stroke="rgb(60, 60, 60)" stroke-width="1px" opacity="0.25"></line><line x1="325.216" y1="0" x2="325.216" y2="366" fill="rgb(0, 0, 0)" stroke="rgb(60, 60, 60)" stroke-width="1px" opacity="0.25"></line><line x1="406.52" y1="0" x2="406.52" y2="366" fill="rgb(0, 0, 0)" stroke="rgb(60, 60, 60)" stroke-width="1px" opacity="0.25"></line><line x1="487.824" y1="0" x2="487.824" y2="366" fill="rgb(0, 0, 0)" stroke="rgb(60, 60, 60)" stroke-width="1px" opacity="0.25"></line><line x1="569.1279999999999" y1="0" x2="569.1279999999999" y2="366" fill="rgb(0, 0, 0)" stroke="rgb(60, 60, 60)" stroke-width="1px" opacity="0.25"></line><line x1="650.432" y1="0" x2="650.432" y2="366" fill="rgb(0, 0, 0)" stroke="rgb(60, 60, 60)" stroke-width="1px" opacity="0.25"></line><line x1="731.736" y1="0" x2="731.736" y2="366" fill="rgb(0, 0, 0)" stroke="rgb(60, 60, 60)" stroke-width="1px" opacity="0.25"></line><line x1="813.04" y1="0" x2="813.04" y2="366" fill="rgb(0, 0, 0)" stroke="rgb(60, 60, 60)" stroke-width="1px" opacity="0.25"></line><line x1="894.3439999999999" y1="0" x2="894.3439999999999" y2="366" fill="rgb(0, 0, 0)" stroke="rgb(60, 60, 60)" stroke-width="1px" opacity="0.25"></line><line x1="975.648" y1="0" x2="975.648" y2="366" fill="rgb(0, 0, 0)" stroke="rgb(60, 60, 60)" stroke-width="1px" opacity="0.25"></line><line x1="1056.952" y1="0" x2="1056.952" y2="366" fill="rgb(0, 0, 0)" stroke="rgb(60, 60, 60)" stroke-width="1px" opacity="0.25"></line><line x1="1138.2559999999999" y1="0" x2="1138.2559999999999" y2="366" fill="rgb(0, 0, 0)" stroke="rgb(60, 60, 60)" stroke-width="1px" opacity="0.25"></line><line x1="1219.56" y1="0" x2="1219.56" y2="366" fill="rgb(0, 0, 0)" stroke="rgb(60, 60, 60)" stroke-width="1px" opacity="0.25"></line></g><g><line x1="0" y1="366" x2="1219.56" y2="366" fill="rgb(0, 0, 0)" stroke="rgb(60, 60, 60)" stroke-width="1px" opacity="0.25"></line><line x1="0" y1="325.3333333333333" x2="1219.56" y2="325.3333333333333" fill="rgb(0, 0, 0)" stroke="rgb(60, 60, 60)" stroke-width="1px" opacity="0.25"></line><line x1="0" y1="284.66666666666663" x2="1219.56" y2="284.66666666666663" fill="rgb(0, 0, 0)" stroke="rgb(60, 60, 60)" stroke-width="1px" opacity="0.25"></line><line x1="0" y1="244" x2="1219.56" y2="244" fill="rgb(0, 0, 0)" stroke="rgb(60, 60, 60)" stroke-width="1px" opacity="0.25"></line><line x1="0" y1="203.33333333333331" x2="1219.56" y2="203.33333333333331" fill="rgb(0, 0, 0)" stroke="rgb(60, 60, 60)" stroke-width="1px" opacity="0.25"></line><line x1="0" y1="162.66666666666666" x2="1219.56" y2="162.66666666666666" fill="rgb(0, 0, 0)" stroke="rgb(60, 60, 60)" stroke-width="1px" opacity="0.25"></line><line x1="0" y1="122" x2="1219.56" y2="122" fill="rgb(0, 0, 0)" stroke="rgb(60, 60, 60)" stroke-width="1px" opacity="0.25"></line><line x1="0" y1="81.33333333333337" x2="1219.56" y2="81.33333333333337" fill="rgb(0, 0, 0)" stroke="rgb(60, 60, 60)" stroke-width="1px" opacity="0.25"></line><line x1="0" y1="40.666666666666686" x2="1219.56" y2="40.666666666666686" fill="rgb(0, 0, 0)" stroke="rgb(60, 60, 60)" stroke-width="1px" opacity="0.25"></line><line x1="0" y1="0" x2="1219.56" y2="0" fill="rgb(0, 0, 0)" stroke="rgb(60, 60, 60)" stroke-width="1px" opacity="0.25"></line></g></g></g><g><g><line x1="0" y1="325.3333333333333" x2="1219.56" y2="325.3333333333333" fill="rgb(0, 0, 0)" stroke="rgb(153, 153, 153)" stroke-width="1.5px"></line></g></g><g><g><line x1="-2122090255.848" y1="0" x2="-2122090255.848" y2="366" fill="rgb(0, 0, 0)" stroke="rgb(153, 153, 153)" stroke-width="1.5px"></line></g></g><g><g><g><g><g><path stroke="rgb(255, 112, 67)" stroke-width="2px" d="M96.8208684,42.92234929402673L104.12738786666667,43.96950554463922L113.76191186666665,49.96536003056036L122.15925999999999,51.796764371484926L132.17862293333334,53.63675767115308L139.5867724,57.592555360371136L149.09663026666666,57.884020426155644L156.43567133333335,60.2221429362549L165.8059573333333,70.55296556955903L173.1517737333333,70.68920557589365L182.5396756,73.94786235885186L189.88007173333332,75.68353773627246L199.31540093333334,81.58981114817664L206.6652825333333,83.53336352905006L216.09519146666665,85.0916679745655L223.47081933333334,83.25855859779108L233.0823072,88.52406616896394L240.57718093333332,89.5413350284851L250.1751181333333,97.72547487486241L257.8136289333333,99.60159407464943L267.35600839999995,100.43716891320423L274.72757106666666,97.08813040084613L284.24013906666664,96.92644452160425L291.91252653333333,94.54754462422898L301.6622312,99.50961367447098L309.06496039999996,104.23200895318666L319.3878582666666,108.79180895330671L327.18220173333333,108.44546874321708L337.6839684,119.32626869970059L345.36719639999995,121.33063355014355L355.03830719999996,115.08348252432191L362.371928,115.66993445653432L371.7706704,120.30931377809026L379.323812,125.79806860015967L389.5261089333333,131.6885930495189L397.3800753333333,135.22516092287185L407.5959229333333,140.00985669966826L415.3319985333333,139.1914051129997L425.4828029333333,141.15239091111317L433.2012626666666,143.86440166936663L442.7463522666667,153.2946585689651L450.3103344,154.22700778731084L460.55328333333335,158.8495075766732L468.4194453333333,160.25505847713654L478.1664398666666,164.7445384644057L485.99466,161.10778655556007L495.5234888,167.57267320308395L503.0224277333333,174.9817721676937L513.0580514666667,176.9179278852505L520.5664758666667,181.5734460369956L530.6535921333333,175.40605871742565L538.5780219999999,173.22922935154705L548.2911398666666,191.43720995536358L556.0326357333333,192.01214086483375L566.1414330666667,196.71029407985176L574.0103052,201.01138580109244L583.7247781333333,207.96885110869863L591.2277822666666,209.2091900849539L600.8961829333333,202.9613963627757L608.7650550666666,201.31343270035185L618.4361658666667,205.63688716469662L625.8646413333333,211.16342482125447L635.5113609333333,214.4186541045814L642.9764232,220.94057814449326L652.4930563999999,225.295998894236L659.9052710666667,228.31517897621097L669.5641862666666,222.45280921844784L677.0224731999999,222.79967044530952L686.6705478666667,228.30300960783632L694.0949581333332,231.13350662787747L703.7863949333333,234.0348513638337L711.2555223999999,235.55985598772702L720.9862561333333,236.29340671913317L728.3957606666667,238.03644034935354L738.1319146666667,248.67194255128845L745.6538897333334,251.9726406601891L755.3073846666666,259.8688178506401L762.7724469333334,258.54155751078724L772.4652388000001,257.08041502083535L779.9194605333333,255.12054698564603L789.6068321333332,259.6985230148692L797.0556336,261.34919062502934L806.73894,264.9014318331679L814.2351688,264.52547583857813L823.9415113333333,259.1026840309247L831.3672766666667,259.21150669420456L841.0221266666666,256.3334822221545L848.5129352,257.3709145428005L858.1555895999999,255.94408792474053L865.5718694666667,260.39795466513095L875.1955529333333,266.7706890262327L882.636224,272.5732551878601L892.3628925333333,268.7981531878559L899.7656217333333,266.58499638210907L909.3351025333333,267.64752163189706L916.6971797333333,272.5442955988052L926.1203133333333,280.19413935812946L933.9715696,280.5172462290721L943.5979631999999,278.4635449835546L951.0467646666666,280.7474869195575L960.6623177333333,286.39875868893535L968.1206046666666,286.7633825015931L977.9041859999999,289.4027316176758L985.4193857333333,286.5881072589097L995.0213881333333,291.87835728896766L1002.4850953333332,294.6444809923224L1012.2429304,288.65189811767914L1019.7039274666666,286.5033157209309L1029.3005096,287.27781638462176L1036.7438908,290.0913389240328L1046.3892553333333,295.5370151543952L1053.8231510666667,294.9160637242514L1063.3939869333333,284.8106161920581L1071.3414529333334,279.1871741474171L1081.1629761333331,290.49794785624806L1088.6388789333334,296.6773458310383L1099.3506809333333,297.8511645975207L1108.3578090666665,294.9105554654717L1120.5100469333331,295.23402144038573L1130.0361656,296.23193368336274" style="fill: none;" fill="none"></path></g></g></g></g><g opacity="0.2"><g><g><g><path stroke="rgb(255, 112, 67)" stroke-width="2px" d="M96.8208684,42.92234929402673L104.12738786666667,44.54858295122784L113.76191186666665,55.11465382575989L122.15925999999999,53.679304043451964L132.17862293333334,55.70020071665448L139.5867724,62.233325560887636L149.09663026666666,58.23429020245874L156.43567133333335,63.06897274653119L165.8059573333333,83.22182567914325L173.1517737333333,70.85693788528442L182.5396756,77.96848328908283L189.88007173333332,77.82762916882837L199.31540093333334,88.89070105552673L206.6652825333333,85.93671552340192L216.09519146666665,87.01902103424072L223.47081933333334,80.99106582005822L233.0823072,95.03771932919824L240.57718093333332,90.79978219668072L250.1751181333333,107.8501358826955L257.8136289333333,101.92257952690125L267.35600839999995,101.4708816210429L274.72757106666666,92.9449291229248L284.24013906666664,96.72641746203107L291.91252653333333,91.60452437400818L301.6622312,105.64836613337201L309.06496039999996,110.07425419489545L319.3878582666666,114.43290265401205L327.18220173333333,108.01699868837994L337.6839684,132.78730225563052L345.36719639999995,123.81030631065371L355.03830719999996,107.35490433375043L362.371928,116.39545551935834L371.7706704,126.04885907967886L379.323812,132.58840731779736L389.5261089333333,138.97597563266757L397.3800753333333,139.6003779967626L407.5959229333333,145.9291783173879L415.3319985333333,138.17886881033579L425.4828029333333,143.57839794953665L433.2012626666666,147.21952907244366L442.7463522666667,164.9611732562383L450.3103344,155.38045100371042L460.55328333333335,164.56817062695822L468.4194453333333,161.99391674995422L478.1664398666666,170.29863786697388L485.99466,156.608628153801L495.5234888,175.57062021891275L503.0224277333333,184.14783867200217L513.0580514666667,179.31321672598523L520.5664758666667,187.33295730749768L530.6535921333333,167.7761589686076L538.5780219999999,170.53619436422983L548.2911398666666,213.96296672026318L556.0326357333333,192.72340885798138L566.1414330666667,202.52255074183145L574.0103052,206.33242321014407L583.7247781333333,216.57618514696756L591.2277822666666,210.74365866184235L600.8961829333333,195.23202292124432L608.7650550666666,199.27467676003775L618.4361658666667,210.98559033870697L625.8646413333333,218.00050608317056L635.5113609333333,218.44581695397696L642.9764232,229.00908819834393L652.4930563999999,230.6842487255732L659.9052710666667,232.0503167510033L669.5641862666666,215.20025781790417L677.0224731999999,223.22878511746725L686.6705478666667,235.11139116684595L694.0949581333332,234.6352177063624L703.7863949333333,237.6242107351621L711.2555223999999,237.4464948177338L720.9862561333333,237.2009090781212L728.3957606666667,240.19281081358594L738.1319146666667,261.82951015233994L745.6538897333334,256.0560546517372L755.3073846666666,269.63746658960974L762.7724469333334,256.8995553453763L772.4652388000001,255.27278236548108L779.9194605333333,252.69592277208966L789.6068321333332,265.3621040980021L797.0556336,263.39129171768826L806.73894,269.2960389653842L814.2351688,264.0603669683139L823.9415113333333,252.39395054181418L831.3672766666667,259.3461351792018L841.0221266666666,252.7729731996854L848.5129352,258.6543598969778L858.1555895999999,254.17890868584317L865.5718694666667,265.90799562136334L875.1955529333333,274.6546310881774L882.636224,279.75182137886685L892.3628925333333,264.12783684333164L899.7656217333333,263.84701939423877L909.3351025333333,268.9620103637377L916.6971797333333,278.6022732357184L926.1203133333333,289.6580400268237L933.9715696,280.91697352131206L943.5979631999999,275.92283628384274L951.0467646666666,283.5730347732703L960.6623177333333,293.39015307029086L968.1206046666666,287.2144719163577L977.9041859999999,292.6679666539033L985.4193857333333,283.10603282848996L995.0213881333333,298.42311851183575L1002.4850953333332,298.0665534933408L1012.2429304,281.2382553219795L1019.7039274666666,283.84522608915967L1029.3005096,288.2359793980916L1036.7438908,293.57205025355023L1046.3892553333333,302.27405979732674L1053.8231510666667,294.1478620668252L1063.3939869333333,272.30879855155945L1071.3414529333334,272.2302089333534L1081.1629761333331,304.4909184624751L1088.6388789333334,304.3221043994029L1099.3506809333333,299.3033385972182L1108.3578090666665,291.272620677948L1120.5100469333331,295.6341929932435L1130.0361656,297.46648730834323" style="fill: none;" fill="none"></path></g></g></g></g></g></g><g transform="translate(58, 366)" clip-path="url(#clip_1)"><clipPath id="clip_1"><rect width="1219" height="33"></rect></clipPath><g><g visibility="inherit"><g><g transform="translate(40.652,0)" style="visibility: inherit;"><text transform="translate(0,14)" style="text-anchor: middle; font-family: &quot;Helvetica Neue&quot;, sans-serif; font-size: 12px; font-weight: 200;" fill="rgb(50, 49, 63)" stroke="none" stroke-width="1px">05:27 PM</text></g><g transform="translate(121.956,0)" style="visibility: inherit;"><text transform="translate(0,14)" style="text-anchor: middle; font-family: &quot;Helvetica Neue&quot;, sans-serif; font-size: 12px; font-weight: 200;" fill="rgb(50, 49, 63)" stroke="none" stroke-width="1px">05:28 PM</text></g><g transform="translate(203.26,0)" style="visibility: inherit;"><text transform="translate(0,14)" style="text-anchor: middle; font-family: &quot;Helvetica Neue&quot;, sans-serif; font-size: 12px; font-weight: 200;" fill="rgb(50, 49, 63)" stroke="none" stroke-width="1px">05:29 PM</text></g><g transform="translate(284.56399999999996,0)" style="visibility: inherit;"><text transform="translate(0,14)" style="text-anchor: middle; font-family: &quot;Helvetica Neue&quot;, sans-serif; font-size: 12px; font-weight: 200;" fill="rgb(50, 49, 63)" stroke="none" stroke-width="1px">05:30 PM</text></g><g transform="translate(365.868,0)" style="visibility: inherit;"><text transform="translate(0,14)" style="text-anchor: middle; font-family: &quot;Helvetica Neue&quot;, sans-serif; font-size: 12px; font-weight: 200;" fill="rgb(50, 49, 63)" stroke="none" stroke-width="1px">05:31 PM</text></g><g transform="translate(447.17199999999997,0)" style="visibility: inherit;"><text transform="translate(0,14)" style="text-anchor: middle; font-family: &quot;Helvetica Neue&quot;, sans-serif; font-size: 12px; font-weight: 200;" fill="rgb(50, 49, 63)" stroke="none" stroke-width="1px">05:32 PM</text></g><g transform="translate(528.476,0)" style="visibility: inherit;"><text transform="translate(0,14)" style="text-anchor: middle; font-family: &quot;Helvetica Neue&quot;, sans-serif; font-size: 12px; font-weight: 200;" fill="rgb(50, 49, 63)" stroke="none" stroke-width="1px">05:33 PM</text></g><g transform="translate(609.78,0)" style="visibility: inherit;"><text transform="translate(0,14)" style="text-anchor: middle; font-family: &quot;Helvetica Neue&quot;, sans-serif; font-size: 12px; font-weight: 200;" fill="rgb(50, 49, 63)" stroke="none" stroke-width="1px">05:34 PM</text></g><g transform="translate(691.084,0)" style="visibility: inherit;"><text transform="translate(0,14)" style="text-anchor: middle; font-family: &quot;Helvetica Neue&quot;, sans-serif; font-size: 12px; font-weight: 200;" fill="rgb(50, 49, 63)" stroke="none" stroke-width="1px">05:35 PM</text></g><g transform="translate(772.3879999999999,0)" style="visibility: inherit;"><text transform="translate(0,14)" style="text-anchor: middle; font-family: &quot;Helvetica Neue&quot;, sans-serif; font-size: 12px; font-weight: 200;" fill="rgb(50, 49, 63)" stroke="none" stroke-width="1px">05:36 PM</text></g><g transform="translate(853.6919999999999,0)" style="visibility: inherit;"><text transform="translate(0,14)" style="text-anchor: middle; font-family: &quot;Helvetica Neue&quot;, sans-serif; font-size: 12px; font-weight: 200;" fill="rgb(50, 49, 63)" stroke="none" stroke-width="1px">05:37 PM</text></g><g transform="translate(934.996,0)" style="visibility: inherit;"><text transform="translate(0,14)" style="text-anchor: middle; font-family: &quot;Helvetica Neue&quot;, sans-serif; font-size: 12px; font-weight: 200;" fill="rgb(50, 49, 63)" stroke="none" stroke-width="1px">05:38 PM</text></g><g transform="translate(1016.3,0)" style="visibility: inherit;"><text transform="translate(0,14)" style="text-anchor: middle; font-family: &quot;Helvetica Neue&quot;, sans-serif; font-size: 12px; font-weight: 200;" fill="rgb(50, 49, 63)" stroke="none" stroke-width="1px">05:39 PM</text></g><g transform="translate(1097.604,0)" style="visibility: inherit;"><text transform="translate(0,14)" style="text-anchor: middle; font-family: &quot;Helvetica Neue&quot;, sans-serif; font-size: 12px; font-weight: 200;" fill="rgb(50, 49, 63)" stroke="none" stroke-width="1px">05:40 PM</text></g><g transform="translate(1178.908,0)" style="visibility: inherit;"><text transform="translate(0,14)" style="text-anchor: middle; font-family: &quot;Helvetica Neue&quot;, sans-serif; font-size: 12px; font-weight: 200;" fill="rgb(50, 49, 63)" stroke="none" stroke-width="1px">05:41 PM</text></g></g><g><line x1="0" y1="0" x2="0" y2="17" fill="rgb(0, 0, 0)" stroke="rgb(204, 204, 204)" stroke-width="1px"></line><line x1="81.304" y1="0" x2="81.304" y2="17" fill="rgb(0, 0, 0)" stroke="rgb(204, 204, 204)" stroke-width="1px"></line><line x1="162.608" y1="0" x2="162.608" y2="17" fill="rgb(0, 0, 0)" stroke="rgb(204, 204, 204)" stroke-width="1px"></line><line x1="243.912" y1="0" x2="243.912" y2="17" fill="rgb(0, 0, 0)" stroke="rgb(204, 204, 204)" stroke-width="1px"></line><line x1="325.216" y1="0" x2="325.216" y2="17" fill="rgb(0, 0, 0)" stroke="rgb(204, 204, 204)" stroke-width="1px"></line><line x1="406.52" y1="0" x2="406.52" y2="17" fill="rgb(0, 0, 0)" stroke="rgb(204, 204, 204)" stroke-width="1px"></line><line x1="487.824" y1="0" x2="487.824" y2="17" fill="rgb(0, 0, 0)" stroke="rgb(204, 204, 204)" stroke-width="1px"></line><line x1="569.1279999999999" y1="0" x2="569.1279999999999" y2="17" fill="rgb(0, 0, 0)" stroke="rgb(204, 204, 204)" stroke-width="1px"></line><line x1="650.432" y1="0" x2="650.432" y2="17" fill="rgb(0, 0, 0)" stroke="rgb(204, 204, 204)" stroke-width="1px"></line><line x1="731.736" y1="0" x2="731.736" y2="17" fill="rgb(0, 0, 0)" stroke="rgb(204, 204, 204)" stroke-width="1px"></line><line x1="813.04" y1="0" x2="813.04" y2="17" fill="rgb(0, 0, 0)" stroke="rgb(204, 204, 204)" stroke-width="1px"></line><line x1="894.3439999999999" y1="0" x2="894.3439999999999" y2="17" fill="rgb(0, 0, 0)" stroke="rgb(204, 204, 204)" stroke-width="1px"></line><line x1="975.648" y1="0" x2="975.648" y2="17" fill="rgb(0, 0, 0)" stroke="rgb(204, 204, 204)" stroke-width="1px"></line><line x1="1056.952" y1="0" x2="1056.952" y2="17" fill="rgb(0, 0, 0)" stroke="rgb(204, 204, 204)" stroke-width="1px"></line><line x1="1138.2559999999999" y1="0" x2="1138.2559999999999" y2="17" fill="rgb(0, 0, 0)" stroke="rgb(204, 204, 204)" stroke-width="1px"></line><line x1="1219.56" y1="0" x2="1219.56" y2="17" fill="rgb(0, 0, 0)" stroke="rgb(204, 204, 204)" stroke-width="1px"></line></g><line x1="0" y1="0" x2="1219.56" y2="0" style="visibility: inherit;" fill="rgb(0, 0, 0)" stroke="rgb(204, 204, 204)" stroke-width="1px"></line></g><g visibility="inherit"><g><g transform="translate(40.652,0)" style="visibility: hidden;"><text transform="translate(0,31)" style="text-anchor: middle; font-family: &quot;Helvetica Neue&quot;, sans-serif; font-size: 12px; font-weight: 200;" fill="rgb(50, 49, 63)" stroke="none" stroke-width="1px">August 17, 2019</text></g><g transform="translate(121.956,0)" style="visibility: hidden;"><text transform="translate(0,31)" style="text-anchor: middle; font-family: &quot;Helvetica Neue&quot;, sans-serif; font-size: 12px; font-weight: 200;" fill="rgb(50, 49, 63)" stroke="none" stroke-width="1px">August 17, 2019</text></g><g transform="translate(203.26,0)" style="visibility: hidden;"><text transform="translate(0,31)" style="text-anchor: middle; font-family: &quot;Helvetica Neue&quot;, sans-serif; font-size: 12px; font-weight: 200;" fill="rgb(50, 49, 63)" stroke="none" stroke-width="1px">August 17, 2019</text></g><g transform="translate(284.56399999999996,0)" style="visibility: hidden;"><text transform="translate(0,31)" style="text-anchor: middle; font-family: &quot;Helvetica Neue&quot;, sans-serif; font-size: 12px; font-weight: 200;" fill="rgb(50, 49, 63)" stroke="none" stroke-width="1px">August 17, 2019</text></g><g transform="translate(365.868,0)" style="visibility: hidden;"><text transform="translate(0,31)" style="text-anchor: middle; font-family: &quot;Helvetica Neue&quot;, sans-serif; font-size: 12px; font-weight: 200;" fill="rgb(50, 49, 63)" stroke="none" stroke-width="1px">August 17, 2019</text></g><g transform="translate(447.17199999999997,0)" style="visibility: hidden;"><text transform="translate(0,31)" style="text-anchor: middle; font-family: &quot;Helvetica Neue&quot;, sans-serif; font-size: 12px; font-weight: 200;" fill="rgb(50, 49, 63)" stroke="none" stroke-width="1px">August 17, 2019</text></g><g transform="translate(528.476,0)" style="visibility: hidden;"><text transform="translate(0,31)" style="text-anchor: middle; font-family: &quot;Helvetica Neue&quot;, sans-serif; font-size: 12px; font-weight: 200;" fill="rgb(50, 49, 63)" stroke="none" stroke-width="1px">August 17, 2019</text></g><g transform="translate(609.78,0)" style="visibility: hidden;"><text transform="translate(0,31)" style="text-anchor: middle; font-family: &quot;Helvetica Neue&quot;, sans-serif; font-size: 12px; font-weight: 200;" fill="rgb(50, 49, 63)" stroke="none" stroke-width="1px">August 17, 2019</text></g><g transform="translate(691.084,0)" style="visibility: hidden;"><text transform="translate(0,31)" style="text-anchor: middle; font-family: &quot;Helvetica Neue&quot;, sans-serif; font-size: 12px; font-weight: 200;" fill="rgb(50, 49, 63)" stroke="none" stroke-width="1px">August 17, 2019</text></g><g transform="translate(772.3879999999999,0)" style="visibility: hidden;"><text transform="translate(0,31)" style="text-anchor: middle; font-family: &quot;Helvetica Neue&quot;, sans-serif; font-size: 12px; font-weight: 200;" fill="rgb(50, 49, 63)" stroke="none" stroke-width="1px">August 17, 2019</text></g><g transform="translate(853.6919999999999,0)" style="visibility: hidden;"><text transform="translate(0,31)" style="text-anchor: middle; font-family: &quot;Helvetica Neue&quot;, sans-serif; font-size: 12px; font-weight: 200;" fill="rgb(50, 49, 63)" stroke="none" stroke-width="1px">August 17, 2019</text></g><g transform="translate(934.996,0)" style="visibility: hidden;"><text transform="translate(0,31)" style="text-anchor: middle; font-family: &quot;Helvetica Neue&quot;, sans-serif; font-size: 12px; font-weight: 200;" fill="rgb(50, 49, 63)" stroke="none" stroke-width="1px">August 17, 2019</text></g><g transform="translate(1016.3,0)" style="visibility: hidden;"><text transform="translate(0,31)" style="text-anchor: middle; font-family: &quot;Helvetica Neue&quot;, sans-serif; font-size: 12px; font-weight: 200;" fill="rgb(50, 49, 63)" stroke="none" stroke-width="1px">August 17, 2019</text></g><g transform="translate(1097.604,0)" style="visibility: hidden;"><text transform="translate(0,31)" style="text-anchor: middle; font-family: &quot;Helvetica Neue&quot;, sans-serif; font-size: 12px; font-weight: 200;" fill="rgb(50, 49, 63)" stroke="none" stroke-width="1px">August 17, 2019</text></g><g transform="translate(1178.908,0)" style="visibility: hidden;"><text transform="translate(0,31)" style="text-anchor: middle; font-family: &quot;Helvetica Neue&quot;, sans-serif; font-size: 12px; font-weight: 200;" fill="rgb(50, 49, 63)" stroke="none" stroke-width="1px">August 17, 2019</text></g></g><g><line x1="0" y1="17" x2="0" y2="34" fill="rgb(0, 0, 0)" stroke="rgb(204, 204, 204)" stroke-width="1px"></line><line x1="81.304" y1="17" x2="81.304" y2="34" fill="rgb(0, 0, 0)" stroke="rgb(204, 204, 204)" stroke-width="1px"></line><line x1="162.608" y1="17" x2="162.608" y2="34" fill="rgb(0, 0, 0)" stroke="rgb(204, 204, 204)" stroke-width="1px"></line><line x1="243.912" y1="17" x2="243.912" y2="34" fill="rgb(0, 0, 0)" stroke="rgb(204, 204, 204)" stroke-width="1px"></line><line x1="325.216" y1="17" x2="325.216" y2="34" fill="rgb(0, 0, 0)" stroke="rgb(204, 204, 204)" stroke-width="1px"></line><line x1="406.52" y1="17" x2="406.52" y2="34" fill="rgb(0, 0, 0)" stroke="rgb(204, 204, 204)" stroke-width="1px"></line><line x1="487.824" y1="17" x2="487.824" y2="34" fill="rgb(0, 0, 0)" stroke="rgb(204, 204, 204)" stroke-width="1px"></line><line x1="569.1279999999999" y1="17" x2="569.1279999999999" y2="34" fill="rgb(0, 0, 0)" stroke="rgb(204, 204, 204)" stroke-width="1px"></line><line x1="650.432" y1="17" x2="650.432" y2="34" fill="rgb(0, 0, 0)" stroke="rgb(204, 204, 204)" stroke-width="1px"></line><line x1="731.736" y1="17" x2="731.736" y2="34" fill="rgb(0, 0, 0)" stroke="rgb(204, 204, 204)" stroke-width="1px"></line><line x1="813.04" y1="17" x2="813.04" y2="34" fill="rgb(0, 0, 0)" stroke="rgb(204, 204, 204)" stroke-width="1px"></line><line x1="894.3439999999999" y1="17" x2="894.3439999999999" y2="34" fill="rgb(0, 0, 0)" stroke="rgb(204, 204, 204)" stroke-width="1px"></line><line x1="975.648" y1="17" x2="975.648" y2="34" fill="rgb(0, 0, 0)" stroke="rgb(204, 204, 204)" stroke-width="1px"></line><line x1="1056.952" y1="17" x2="1056.952" y2="34" fill="rgb(0, 0, 0)" stroke="rgb(204, 204, 204)" stroke-width="1px"></line><line x1="1138.2559999999999" y1="17" x2="1138.2559999999999" y2="34" fill="rgb(0, 0, 0)" stroke="rgb(204, 204, 204)" stroke-width="1px"></line><line x1="1219.56" y1="17" x2="1219.56" y2="34" fill="rgb(0, 0, 0)" stroke="rgb(204, 204, 204)" stroke-width="1px"></line></g><line x1="0" y1="17" x2="1219.56" y2="17" style="visibility: inherit;" fill="rgb(0, 0, 0)" stroke="rgb(204, 204, 204)" stroke-width="1px"></line></g></g></g></g></g></svg>